<mxfile host="app.diagrams.net" modified="2024-04-15T10:13:21.393Z" agent="Mozilla/5.0 (Windows NT 10.0; Win64; x64) AppleWebKit/537.36 (KHTML, like Gecko) Chrome/123.0.0.0 Safari/537.36" version="24.2.5" etag="sbDk4BMlm5J0cnxg1svC" type="github">
  <diagram name="PÃ¡gina-1" id="IbArPEyC4yVtoqB_4dP3">
    <mxGraphModel>
      <root>
        <mxCell id="0" />
        <mxCell id="1" parent="0" />
      </root>
    </mxGraphModel>
  </diagram>
</mxfile>
